<?xml version="1.0" encoding="utf-8"?>
<!-- Generator: Adobe Illustrator 15.1.0, SVG Export Plug-In . SVG Version: 6.00 Build 0)  -->
<!DOCTYPE svg PUBLIC "-//W3C//DTD SVG 1.1//EN" "http://www.w3.org/Graphics/SVG/1.1/DTD/svg11.dtd">
<svg version="1.1" id="Layer_1" xmlns="http://www.w3.org/2000/svg" xmlns:xlink="http://www.w3.org/1999/xlink" x="0px" y="0px"
	 width="600px" height="414.664px" viewBox="0 0 600 414.664" enable-background="new 0 0 600 414.664" xml:space="preserve">
<path fill="#63666A" d="M448.744,414.664c-93.002,0-209.338,0-209.338,0L0,0h386.666l199.156,349.331c0,0,2.668,19.25-17.582,39.5
	C552.385,404.686,518.914,414.664,448.744,414.664z"/>
<path fill="#A79F94" d="M570.076,361.7c0,0,7.334,52.964-128.445,52.964c-31.334,0-202.225,0-202.225,0L0,0h386.666
	c0,0,183.592,319.465,194.006,338.667C596.742,368.302,570.076,361.7,570.076,361.7z"/>
<g>
	<defs>
		<path id="SVGID_1_" d="M570.076,361.7c0,0,7.334,52.964-128.445,52.964c-31.334,0-202.225,0-202.225,0L0,0h386.666
			c0,0,183.592,319.465,194.006,338.667C596.742,368.302,570.076,361.7,570.076,361.7z"/>
	</defs>
	<clipPath id="SVGID_2_">
		<use xlink:href="#SVGID_1_"  overflow="visible"/>
	</clipPath>
	<g clip-path="url(#SVGID_2_)">
		<polygon points="106.239,53.809 116.939,61.505 122.727,55.604 130.48,64.342 139.672,60.813 143.72,69.737 155.418,68.927 
			155.363,77.164 168.423,79.15 164.271,85.894 177.413,90.483 169.57,95.073 181.509,101.816 170.744,103.803 180.31,112.04 
			167.676,111.229 173.933,120.153 160.666,116.625 163.002,125.362 150.4,119.461 148.588,127.158 137.887,119.461 132.1,125.362 
			124.347,116.625 115.154,120.153 111.107,111.229 99.408,112.04 99.463,103.803 86.403,101.816 90.556,95.073 77.413,90.483 
			85.256,85.894 73.317,79.15 84.083,77.164 74.518,68.927 87.151,69.737 80.895,60.813 94.16,64.342 91.825,55.604 104.426,61.505 
					"/>
		<path d="M293.314,90.312c11.748,20.35-1.217,36.846-28.96,36.846s-59.759-16.497-71.507-36.846
			c-11.748-20.349,1.218-36.845,28.961-36.845S281.566,69.963,293.314,90.312z"/>
		<polygon points="411.4,101.73 323.674,101.73 298.373,57.907 386.098,57.907 		"/>
		<polygon points="426.08,127.158 338.354,127.158 330.73,113.955 418.457,113.955 		"/>
		<polygon points="331.676,368.302 243.949,368.302 236.326,355.099 324.053,355.099 		"/>
		<path d="M267.885,247.185h-100l-35.42-61.349c0,0,10.77-13.955,42.103-13.955s57.897,13.955,57.897,13.955L267.885,247.185z"/>
		<polygon points="344.175,171.881 244.175,171.881 287.651,247.185 387.651,247.185 		"/>
		<polygon points="397.299,286.304 325.965,286.304 375.283,371.724 446.615,371.724 		"/>
		<polygon points="488.57,209.517 458.963,247.185 385.924,209.55 415.531,171.881 		"/>
		<path d="M308.68,317.845c9.122,15.799-5.869,28.605-33.484,28.605c-27.613,0-57.394-12.807-66.516-28.605
			c-9.121-15.799,5.871-28.606,33.484-28.606C269.779,289.238,299.559,302.046,308.68,317.845z"/>
		<path d="M548.762,329.015c13.617,23.587,5.615,42.709-17.873,42.709c-23.49,0-53.572-19.122-67.191-42.709
			c-13.619-23.589-5.617-42.711,17.873-42.711S535.143,305.426,548.762,329.015z"/>
		<g>
			<polygon points="206.199,140.341 106.199,140.341 104.222,136.917 204.222,136.917 			"/>
			<polygon points="209.586,146.208 109.586,146.208 107.609,142.785 207.609,142.785 			"/>
			<polygon points="212.975,152.076 112.975,152.076 110.998,148.653 210.998,148.653 			"/>
		</g>
		<g>
			<polygon points="321.965,140.341 221.965,140.341 219.988,136.917 319.987,136.917 			"/>
			<polygon points="325.352,146.208 225.352,146.208 223.376,142.785 323.375,142.785 			"/>
			<polygon points="328.74,152.076 228.74,152.076 226.764,148.653 326.764,148.653 			"/>
		</g>
		<g>
			<polygon points="441.631,140.341 341.633,140.341 339.655,136.917 439.654,136.917 			"/>
			<polygon points="445.02,146.208 345.02,146.208 343.043,142.785 443.043,142.785 			"/>
			<polygon points="448.406,152.076 348.408,152.076 346.432,148.653 446.43,148.653 			"/>
		</g>
		<g>
			<polygon points="274.66,258.919 174.66,258.919 172.684,255.497 272.684,255.497 			"/>
			<polygon points="278.049,264.788 178.049,264.788 176.072,261.365 276.072,261.365 			"/>
			<polygon points="281.436,270.655 181.436,270.655 179.46,267.233 279.46,267.233 			"/>
		</g>
		<g>
			<polygon points="390.426,258.919 290.426,258.919 288.45,255.497 388.449,255.497 			"/>
			<polygon points="393.814,264.788 293.814,264.788 291.838,261.365 391.838,261.365 			"/>
			<polygon points="397.201,270.655 297.201,270.655 295.227,267.233 395.226,267.233 			"/>
		</g>
		<g>
			<polygon points="510.092,258.919 410.094,258.919 408.117,255.497 508.117,255.497 			"/>
			<polygon points="513.48,264.788 413.482,264.788 411.506,261.365 511.504,261.365 			"/>
			<polygon points="516.869,270.655 416.869,270.655 414.894,267.233 514.893,267.233 			"/>
		</g>
		<g>
			<polygon points="345.24,381.167 245.24,381.167 243.264,377.745 343.264,377.745 			"/>
			<polygon points="348.627,387.035 248.627,387.035 246.651,383.612 346.651,383.612 			"/>
			<polygon points="352.016,392.903 252.016,392.903 250.04,389.481 350.04,389.481 			"/>
		</g>
		<g>
			<polygon points="461.006,381.167 361.006,381.167 359.03,377.745 459.029,377.745 			"/>
			<polygon points="464.393,387.035 364.394,387.035 362.418,383.612 462.418,383.612 			"/>
			<polygon points="467.781,392.903 367.781,392.903 365.807,389.481 465.807,389.481 			"/>
		</g>
		<g>
			<polygon points="580.672,381.167 480.674,381.167 478.697,377.745 578.697,377.745 			"/>
			<polygon points="584.061,387.035 484.061,387.035 482.086,383.612 582.084,383.612 			"/>
			<polygon points="587.449,392.903 487.449,392.903 485.475,389.481 585.473,389.481 			"/>
		</g>
		<g>
			<path d="M61.366,24.978c0.012,0.616-0.175,1.145-0.562,1.584c-0.386,0.44-0.96,0.783-1.721,1.03
				c-0.762,0.247-1.695,0.37-2.799,0.37c-1.12,0-2.199-0.123-3.237-0.37c-1.039-0.247-1.997-0.59-2.875-1.03
				s-1.663-0.968-2.354-1.584s-1.254-1.299-1.688-2.051l-4.482-7.763h4.08l4.34,7.517c0.196,0.341,0.443,0.664,0.738,0.968
				c0.297,0.305,0.638,0.578,1.025,0.818c0.387,0.241,0.824,0.432,1.314,0.573c0.488,0.141,1.021,0.211,1.598,0.211
				s1.027-0.07,1.354-0.211c0.327-0.141,0.549-0.332,0.666-0.573c0.117-0.24,0.144-0.513,0.079-0.818
				c-0.063-0.305-0.194-0.627-0.392-0.968l-4.34-7.517h4.104l4.482,7.763C61.132,23.678,61.354,24.361,61.366,24.978z"/>
			<path d="M74.355,27.627l-2.764-4.788c-0.143-0.247-0.307-0.481-0.491-0.704c-0.185-0.223-0.39-0.42-0.616-0.59
				S70,21.24,69.71,21.14c-0.289-0.1-0.61-0.149-0.962-0.149s-0.631,0.049-0.838,0.149c-0.206,0.1-0.347,0.238-0.421,0.414
				c-0.075,0.176-0.09,0.378-0.046,0.607c0.045,0.229,0.139,0.466,0.28,0.713l2.744,4.753h-3.96l-5.062-8.767h3.815l0.702,1.215
				h0.048c0.035-0.188,0.117-0.373,0.244-0.555c0.127-0.182,0.309-0.337,0.547-0.466c0.236-0.129,0.516-0.235,0.836-0.317
				c0.32-0.082,0.689-0.123,1.105-0.123c0.8,0,1.541,0.105,2.223,0.317s1.291,0.484,1.828,0.818c0.537,0.334,1.008,0.719,1.41,1.153
				c0.403,0.435,0.73,0.869,0.98,1.303l3.131,5.422H74.355z"/>
			<path d="M90.34,27.627l-0.661-1.144h-0.048c-0.127,0.446-0.477,0.789-1.049,1.03c-0.574,0.24-1.26,0.361-2.061,0.361
				c-0.896,0-1.771-0.129-2.623-0.387c-0.854-0.258-1.647-0.602-2.383-1.03c-0.735-0.428-1.395-0.924-1.975-1.487
				c-0.582-0.563-1.049-1.15-1.4-1.76c-0.353-0.61-0.558-1.194-0.615-1.751c-0.059-0.558,0.035-1.047,0.279-1.47
				c0.244-0.422,0.643-0.757,1.196-1.003s1.263-0.37,2.127-0.37c0.88,0,1.694,0.123,2.445,0.37c0.75,0.247,1.378,0.517,1.884,0.81
				h0.047l-3.16-5.475h3.936l7.684,13.309H90.34z M87.654,23.226c-0.162-0.282-0.39-0.557-0.682-0.827
				c-0.291-0.27-0.623-0.511-0.992-0.722c-0.371-0.211-0.769-0.382-1.195-0.511c-0.426-0.129-0.863-0.193-1.311-0.193
				c-0.465,0-0.836,0.064-1.113,0.193s-0.477,0.296-0.598,0.501c-0.122,0.206-0.165,0.443-0.129,0.713s0.135,0.545,0.298,0.827
				s0.384,0.561,0.663,0.836c0.278,0.275,0.6,0.519,0.961,0.73c0.362,0.211,0.756,0.382,1.184,0.511
				c0.426,0.129,0.871,0.193,1.335,0.193c0.448,0,0.812-0.064,1.089-0.193c0.277-0.129,0.479-0.299,0.605-0.511
				c0.125-0.211,0.179-0.452,0.158-0.722C87.908,23.784,87.816,23.507,87.654,23.226z"/>
			<path d="M106.47,23.349c0.067,0.118,0.136,0.235,0.203,0.352c0.067,0.118,0.124,0.229,0.169,0.334h-8.664
				c0.174,0.247,0.403,0.47,0.687,0.669c0.283,0.2,0.599,0.373,0.948,0.52c0.349,0.147,0.711,0.261,1.086,0.343
				s0.738,0.123,1.091,0.123c0.624,0,1.103-0.085,1.437-0.255c0.334-0.17,0.559-0.39,0.676-0.661l3.467,1.268
				c-0.215,0.599-0.688,1.06-1.422,1.382c-0.734,0.322-1.709,0.484-2.924,0.484c-0.896,0-1.805-0.103-2.723-0.308
				c-0.918-0.206-1.791-0.504-2.617-0.897c-0.828-0.394-1.58-0.877-2.256-1.453s-1.227-1.232-1.654-1.972
				c-0.413-0.716-0.619-1.364-0.619-1.945c0.001-0.581,0.172-1.074,0.515-1.479s0.841-0.719,1.497-0.942
				c0.654-0.223,1.438-0.334,2.35-0.334c0.881,0,1.751,0.108,2.612,0.326s1.675,0.531,2.44,0.942s1.465,0.91,2.1,1.497
				S106.036,22.598,106.47,23.349z M102.205,22.24c-0.264-0.458-0.688-0.851-1.269-1.18c-0.582-0.328-1.265-0.493-2.049-0.493
				c-0.384,0-0.711,0.044-0.979,0.132c-0.27,0.087-0.48,0.208-0.632,0.36c-0.151,0.153-0.24,0.332-0.267,0.537
				c-0.025,0.206,0.019,0.419,0.132,0.643H102.205z"/>
			<path d="M115.449,21.237c-0.195-0.035-0.381-0.059-0.557-0.07c-0.174-0.012-0.342-0.018-0.502-0.018
				c-0.527,0-0.931,0.07-1.21,0.21c-0.278,0.141-0.47,0.311-0.57,0.509c-0.101,0.199-0.132,0.416-0.093,0.65
				c0.039,0.234,0.109,0.438,0.211,0.614l2.595,4.495h-3.937l-5.055-8.756h3.792l0.731,1.268h0.048
				c0.045-0.449,0.265-0.815,0.661-1.099c0.396-0.283,0.963-0.425,1.699-0.425c0.16,0,0.318,0.006,0.479,0.018
				c0.158,0.012,0.293,0.03,0.402,0.053L115.449,21.237z"/>
			<path d="M126.697,14.988c0.926,0.023,1.93,0.141,3.012,0.352c1.082,0.211,2.127,0.54,3.137,0.985
				c-0.404,0.658-0.811,1.297-1.22,1.919c-0.569-0.293-1.181-0.522-1.837-0.687c-0.654-0.164-1.241-0.252-1.76-0.264l1.626,2.817
				c0.706,0.141,1.429,0.299,2.171,0.475c0.741,0.176,1.461,0.411,2.158,0.704c0.697,0.293,1.336,0.651,1.916,1.074
				c0.58,0.422,1.053,0.95,1.418,1.584c0.373,0.646,0.541,1.206,0.504,1.681c-0.039,0.475-0.227,0.871-0.562,1.188
				c-0.337,0.317-0.791,0.558-1.359,0.722c-0.57,0.164-1.203,0.252-1.899,0.264l0.741,1.285h-1.775l-0.742-1.285
				c-1.055-0.024-2.184-0.167-3.393-0.432s-2.365-0.66-3.471-1.188c0.233-0.317,0.469-0.637,0.707-0.959
				c0.236-0.323,0.469-0.648,0.695-0.977c0.31,0.176,0.65,0.337,1.023,0.484c0.373,0.147,0.742,0.273,1.106,0.378
				c0.365,0.106,0.718,0.191,1.06,0.255c0.34,0.064,0.647,0.097,0.92,0.097l-1.778-3.08c-0.77-0.141-1.521-0.3-2.255-0.476
				c-0.734-0.176-1.422-0.405-2.064-0.687s-1.225-0.625-1.746-1.03s-0.952-0.9-1.291-1.487c-0.332-0.575-0.469-1.089-0.409-1.541
				s0.255-0.833,0.587-1.145c0.332-0.311,0.77-0.551,1.312-0.722c0.542-0.17,1.118-0.267,1.729-0.291l-0.701-1.214h1.752
				L126.697,14.988z M126.257,17.258c-0.411,0.035-0.73,0.156-0.956,0.361c-0.225,0.206-0.227,0.502-0.002,0.889
				c0.217,0.375,0.534,0.663,0.953,0.863c0.42,0.199,0.912,0.346,1.479,0.44L126.257,17.258z M132.658,25.479
				c0.531-0.023,0.883-0.155,1.057-0.396c0.173-0.241,0.141-0.566-0.097-0.977s-0.579-0.719-1.024-0.924
				c-0.447-0.206-0.961-0.367-1.541-0.484L132.658,25.479z"/>
			<path d="M147.65,27.627l-5.284-9.154l-2.132,1.795l-3.297-2.095l3.852-3.01h3.674l7.195,12.463H147.65z"/>
			<path d="M167.952,23.507c0.44,0.764,0.638,1.423,0.592,1.981s-0.272,1.018-0.679,1.381c-0.406,0.364-0.948,0.637-1.627,0.819
				c-0.68,0.182-1.435,0.273-2.266,0.273c-0.769,0-1.543-0.073-2.324-0.22c-0.78-0.146-1.533-0.354-2.256-0.625
				c-0.725-0.27-1.403-0.602-2.039-0.995c-0.635-0.393-1.19-0.836-1.667-1.329l3.194-0.828c0.427,0.435,0.965,0.792,1.616,1.074
				c0.649,0.281,1.312,0.422,1.983,0.422c0.688,0,1.196-0.152,1.523-0.458c0.328-0.305,0.32-0.757-0.025-1.355
				c-0.211-0.364-0.491-0.669-0.841-0.915c-0.351-0.247-0.732-0.443-1.146-0.59c-0.412-0.146-0.844-0.25-1.293-0.308
				c-0.45-0.059-0.883-0.088-1.299-0.088c-0.608,0-1.271,0.05-1.99,0.15c-0.719,0.1-1.334,0.232-1.848,0.396l-3.707-7.129h10.416
				l1.463,2.535h-6.84l0.994,1.972c0.229-0.046,0.494-0.079,0.797-0.097c0.302-0.018,0.58-0.026,0.836-0.026
				c0.848,0,1.695,0.083,2.543,0.246c0.847,0.165,1.643,0.414,2.388,0.749s1.42,0.748,2.024,1.241
				C167.081,22.275,167.572,22.851,167.952,23.507z"/>
		</g>
	</g>
</g>
</svg>
