<?xml version="1.0" encoding="utf-8"?>
<!-- Generator: Adobe Illustrator 15.1.0, SVG Export Plug-In . SVG Version: 6.00 Build 0)  -->
<!DOCTYPE svg PUBLIC "-//W3C//DTD SVG 1.1//EN" "http://www.w3.org/Graphics/SVG/1.1/DTD/svg11.dtd">
<svg version="1.1" id="Layer_1" xmlns="http://www.w3.org/2000/svg" xmlns:xlink="http://www.w3.org/1999/xlink" x="0px" y="0px"
	 width="119.933px" height="119.933px" viewBox="0 0 119.933 119.933" enable-background="new 0 0 119.933 119.933"
	 xml:space="preserve">
<g>
	<path fill="#CDCCCC" d="M83.324,100.324c-0.624,0-1.232,0.064-1.82,0.185L73.219,74.62c3.777-0.29,6.755-3.421,6.755-7.296h-4.649
		l22-33H66.591c3.446-2.226,5.733-6.092,5.733-10.5c0-6.903-5.597-12.5-12.5-12.5s-12.5,5.597-12.5,12.5
		c0,4.408,2.287,8.274,5.733,10.5H22.324l22,33h-4.983c0,3.975,3.132,7.164,7.046,7.311l-8.622,25.866
		c-0.574-0.114-1.167-0.177-1.774-0.177c-4.97,0-9,4.029-9,9h7.833h10.167h2.333l12.5-25l12.5,25h2h10h8
		C92.324,104.354,88.295,100.324,83.324,100.324z M48.951,55.022l-5.968-9.698h6.341L48.951,55.022z M70.363,55.022l-0.373-9.698
		h6.341L70.363,55.022z"/>
	<path fill="#676767" d="M61.37,45.722c1.243,0,1.865,0.118,1.865,0.353c0,0.278-0.279,0.429-0.838,0.454
		c-0.675,0.033-1.305,0.19-1.889,0.469c-0.583,0.28-1.102,0.661-1.557,1.145s-0.809,1.027-1.063,1.631
		c-0.255,0.605-0.381,1.244-0.381,1.919c0,0.75,0.212,1.35,0.636,1.8c0.426,0.45,0.978,0.675,1.66,0.675
		c0.633,0,1.186-0.264,1.66-0.793s0.711-1.147,0.711-1.855c0-0.583-0.146-1.129-0.439-1.637s-0.72-0.933-1.281-1.275
		c-0.238-0.158-0.357-0.271-0.357-0.337c0-0.1,0.169-0.25,0.508-0.45c0.382-0.208,0.809-0.383,1.281-0.524
		c0.473-0.142,0.869-0.213,1.192-0.213c0.372,0,0.727,0.08,1.062,0.237c0.336,0.159,0.633,0.386,0.89,0.682
		c0.257,0.296,0.454,0.638,0.591,1.025c0.136,0.387,0.204,0.797,0.204,1.23c0,0.726-0.167,1.439-0.5,2.144s-0.771,1.272-1.312,1.706
		c-0.701,0.559-1.544,1.013-2.531,1.363c-0.988,0.351-1.928,0.524-2.818,0.524c-0.866,0-1.727-0.123-2.58-0.369
		s-1.531-0.57-2.031-0.97c-0.666-0.55-1-1.325-1-2.326c0-0.792,0.238-1.584,0.715-2.376c0.476-0.792,1.121-1.509,1.936-2.151
		c0.813-0.642,1.711-1.148,2.692-1.52S60.367,45.722,61.37,45.722z"/>
	<path fill="#010101" d="M55.85,27.324c0.088,2,1.92,4.015,4.174,4.015c2.253,0,4.085-2.015,4.174-4.015H55.85z"/>
	<path fill="#010101" d="M67.619,21.324c-0.062-2-1.328-2.775-2.885-2.775c-1.558,0-2.824,0.775-2.885,2.775H67.619z"/>
	<path fill="#010101" d="M51.692,21.324c0.061-2,1.327-2.775,2.884-2.775c1.558,0,2.824,0.775,2.885,2.775H51.692z"/>
</g>
</svg>
