<svg id="Layer_1" data-name="Layer 1" xmlns="http://www.w3.org/2000/svg" viewBox="0 0 240.71 124.25"><defs><style>.cls-1{fill:#fbb315;}.cls-2{fill:#fff;}.cls-3{fill:#ffd26c;}.cls-4{fill:#e0e1e1;}</style></defs><title>yno_logo_white</title><path class="cls-1" d="M279.5,75.12q10.64,0,10.64,2,0,2.37-4.78,2.59a27.86,27.86,0,0,0-10.77,2.67,29.74,29.74,0,0,0-8.87,6.52,31.08,31.08,0,0,0-6.06,9.3,27.89,27.89,0,0,0-2.17,10.94q0,6.42,3.63,10.26a12.8,12.8,0,0,0,18.92-.68,15.35,15.35,0,0,0,4.06-10.58,18.36,18.36,0,0,0-2.51-9.33,20.56,20.56,0,0,0-7.3-7.27q-2-1.35-2-1.92,0-.85,2.9-2.57a38,38,0,0,1,7.3-3,24.4,24.4,0,0,1,6.8-1.21,14.06,14.06,0,0,1,6.05,1.35,15.4,15.4,0,0,1,5.07,3.89,17.92,17.92,0,0,1,3.36,5.84,20.94,20.94,0,0,1,1.17,7A28.33,28.33,0,0,1,302,113.18a27,27,0,0,1-7.48,9.72,49.41,49.41,0,0,1-14.43,7.77,48.1,48.1,0,0,1-16.07,3,52.89,52.89,0,0,1-14.71-2.1A33,33,0,0,1,237.78,126q-5.7-4.71-5.7-13.26a26.12,26.12,0,0,1,4.07-13.55,45.58,45.58,0,0,1,11-12.26,57.53,57.53,0,0,1,15.35-8.66A47.58,47.58,0,0,1,279.5,75.12Z" transform="translate(-77.89 -66.9)"/><path class="cls-2" d="M129.27,96.36q-5.12,10.65-6,12.34-2.73,5.88-5,10h-.34q-.78-3.56-1.39-5.51a193,193,0,0,1-5-26.73q-1.45-12.64-3.37-16.08t-7.46-3.44a29,29,0,0,0-8.87,1.61q-6.15,1.87-8.45,6.36-2.56,5.27-2.56,13.67,0,11,7,24.62,3.17,6.11,5.83,10.19t7.81,11A88.72,88.72,0,0,0,88.3,140.1a23.74,23.74,0,0,0-5.85,4.43,21.71,21.71,0,0,0-3.36,5.63,14.23,14.23,0,0,0-1.2,5.2q0,2.73,3.85,2.73a31.14,31.14,0,0,0,10.14-1.92,61.67,61.67,0,0,0,11.72-5.7A98.76,98.76,0,0,0,115.44,142a112.79,112.79,0,0,0,11.12-10.77,137,137,0,0,0,15.06-20.95q4.1-6.55,7.49-12.73T155,86.15q2.52-5.19,4.06-9.32a19.81,19.81,0,0,0,1.54-6.09q0-3.83-5.63-3.83a18.3,18.3,0,0,0-6.83,1.53,27.21,27.21,0,0,0-6.66,3.83A22.79,22.79,0,0,0,134.74,83l-1.11,3Q132.18,90,129.27,96.36Z" transform="translate(-77.89 -66.9)"/><path class="cls-2" d="M178.09,116q3.44-12.77,3.44-19.68,0-9.38-8.84-9.38A14.33,14.33,0,0,0,163.43,90a38.75,38.75,0,0,0-9.52,13.41q-2.55,5.22-4.73,10.94t-3.75,11.15q-1.58,5.43-2.51,10.17a42.2,42.2,0,0,0-.94,8,11.49,11.49,0,0,0,3.41,8.67,12.27,12.27,0,0,0,8.87,3.29,11.31,11.31,0,0,0,7.17-2.48q2.13-2.14,4.69-4.89,6.65-7.28,16.21-16.2,2-1.8,4.23-3.77t5.93-5.32l.34.26a54.33,54.33,0,0,0-1,9.66A26.32,26.32,0,0,0,194,143.77a17.24,17.24,0,0,0,6.12,7.48,15.45,15.45,0,0,0,8.8,2.65,26,26,0,0,0,7.32-1.32,24.19,24.19,0,0,0,7-3.2,2.07,2.07,0,0,0,1-1.8,13.22,13.22,0,0,0-.83-3.41,28.18,28.18,0,0,1-1.73-5.29,63.05,63.05,0,0,1-.83-11.35,93.27,93.27,0,0,1,1-13.23,68.85,68.85,0,0,0,.68-8q0-6.58-2.49-9.22t-8.59-2.65A19.3,19.3,0,0,0,204,95.91a40.15,40.15,0,0,0-8.24,4.91,160,160,0,0,0-12.27,10.48l-5.07,5Z" transform="translate(-77.89 -66.9)"/><path class="cls-2" d="M318.23,166.4c-1.75-7.21-10-11.05-10.74-9.73s3,2.2,4.09,5.65c2.28,7.45-4.81,16.09-15.61,19.24s-19.41,1.14-22.22-5.89c-1.42-3.56-.06-5.55-1.59-6s-3,4.55-1.09,10.42c2.87,8.89,15,13.57,28.18,9.74S320.46,175.61,318.23,166.4Z" transform="translate(-77.89 -66.9)"/><path class="cls-3" d="M276.87,73.67q10.61,0,10.62,2,0,2.36-4.77,2.58A27.84,27.84,0,0,0,272,80.93a29.69,29.69,0,0,0-8.86,6.51,31,31,0,0,0-6.05,9.28,27.83,27.83,0,0,0-2.17,10.92q0,6.4,3.62,10.24a12.78,12.78,0,0,0,18.89-.68,15.33,15.33,0,0,0,4-10.56,18.34,18.34,0,0,0-2.5-9.31,20.54,20.54,0,0,0-7.29-7.25q-2-1.35-2-1.92,0-.85,2.9-2.56a38,38,0,0,1,7.28-3,24.4,24.4,0,0,1,6.79-1.21,14,14,0,0,1,6,1.35,15.36,15.36,0,0,1,5.06,3.88A17.84,17.84,0,0,1,301,92.46a20.83,20.83,0,0,1,1.17,7,28.26,28.26,0,0,1-2.84,12.2,27,27,0,0,1-7.47,9.71,49.34,49.34,0,0,1-14.4,7.75,48,48,0,0,1-16,3,52.79,52.79,0,0,1-14.68-2.1,33,33,0,0,1-11.56-5.52q-5.69-4.7-5.69-13.23a26.05,26.05,0,0,1,4.06-13.52,45.48,45.48,0,0,1,11-12.24,57.38,57.38,0,0,1,15.32-8.65A47.5,47.5,0,0,1,276.87,73.67Z" transform="translate(-77.89 -66.9)"/><path class="cls-1" d="M279,74.87q10.61,0,10.62,2,0,2.37-4.77,2.58a27.84,27.84,0,0,0-10.75,2.67,29.71,29.71,0,0,0-8.86,6.51,31,31,0,0,0-6.05,9.28,27.83,27.83,0,0,0-2.17,10.92q0,6.4,3.62,10.24a12.78,12.78,0,0,0,18.89-.68,15.32,15.32,0,0,0,4-10.56,18.34,18.34,0,0,0-2.5-9.31,20.52,20.52,0,0,0-7.29-7.25q-2-1.35-2-1.92,0-.85,2.9-2.56a37.9,37.9,0,0,1,7.28-3,24.36,24.36,0,0,1,6.79-1.21,14,14,0,0,1,6,1.35,15.36,15.36,0,0,1,5.06,3.88,17.87,17.87,0,0,1,3.36,5.83,20.9,20.9,0,0,1,1.16,7,28.26,28.26,0,0,1-2.84,12.2,27,27,0,0,1-7.47,9.71,49.31,49.31,0,0,1-14.4,7.75,48,48,0,0,1-16,3,52.82,52.82,0,0,1-14.68-2.1,33,33,0,0,1-11.55-5.52q-5.69-4.7-5.69-13.23a26.05,26.05,0,0,1,4.06-13.52,45.45,45.45,0,0,1,11-12.24A57.4,57.4,0,0,1,262.1,78,47.48,47.48,0,0,1,279,74.87Z" transform="translate(-77.89 -66.9)"/><path class="cls-4" d="M306.6,89.07c-3.37.73,4.3,13.63-4,28.06a35.16,35.16,0,0,1-12.83,12.3c-13.57,7.42-32.11,8.91-46.1,3.08-12.48-5.2-13.09-13.21-15-12.59s1.6,13.83,17.13,25.2c7.26,5.31,19.24,7.25,31.23,5.35,0,0,11.05,17,14.64,15.62s-.95-19.58-.95-19.58A42.49,42.49,0,0,0,308.95,132C322.69,112,309.2,88.51,306.6,89.07Z" transform="translate(-77.89 -66.9)"/><path class="cls-2" d="M306.42,89.83c-2.5,1.13,6.28,13.92-2.29,28.88a36.31,36.31,0,0,1-13.2,12.75c-14,7.69-33,9.24-47.44,3.19-12.84-5.39-12.87-15.37-14.81-14.73s1.05,16,17,27.8c7.47,5.51,19.8,7.52,32.14,5.55,0,0,11.37,17.6,15.06,16.19s-1-20.3-1-20.3a43.75,43.75,0,0,0,18.74-15C324.83,113.43,308.92,88.7,306.42,89.83Z" transform="translate(-77.89 -66.9)"/><path class="cls-2" d="M141.32,171.06h-5v-2.55h13v2.55h-5v13.89h-2.93Z" transform="translate(-77.89 -66.9)"/><path class="cls-2" d="M159.59,168.51h2.53l7.08,16.44h-3.34l-1.53-3.76H157.2l-1.49,3.76h-3.27Zm3.71,10.17L160.78,172l-2.58,6.69Z" transform="translate(-77.89 -66.9)"/><path class="cls-2" d="M183.86,171.95a3.56,3.56,0,0,0-1.31-1,3.92,3.92,0,0,0-1.71-.41,4.21,4.21,0,0,0-1,.13,3.11,3.11,0,0,0-.93.39,2.19,2.19,0,0,0-.68.7,1.91,1.91,0,0,0-.27,1,1.84,1.84,0,0,0,.23,1,2.1,2.1,0,0,0,.64.67,4.36,4.36,0,0,0,1,.49c.39.14.81.28,1.28.42s1.07.36,1.64.58a6.31,6.31,0,0,1,1.56.86,4.25,4.25,0,0,1,1.16,1.35,4.11,4.11,0,0,1,.45,2,5.15,5.15,0,0,1-.49,2.31,4.77,4.77,0,0,1-1.3,1.64,5.53,5.53,0,0,1-1.9,1,8,8,0,0,1-2.3.33,8.64,8.64,0,0,1-3.13-.59,6.05,6.05,0,0,1-2.51-1.75l2.09-2a4.19,4.19,0,0,0,1.61,1.32,4.54,4.54,0,0,0,2,.49,4.45,4.45,0,0,0,1-.13,2.78,2.78,0,0,0,1-.43,2.39,2.39,0,0,0,.7-.75,2.19,2.19,0,0,0,.27-1.13,1.83,1.83,0,0,0-.3-1.08,2.7,2.7,0,0,0-.81-.74,5.87,5.87,0,0,0-1.21-.55l-1.46-.49a14.51,14.51,0,0,1-1.49-.56,4.91,4.91,0,0,1-1.33-.86,4.14,4.14,0,0,1-1-1.31,4.48,4.48,0,0,1-.37-1.94,4.24,4.24,0,0,1,.52-2.16,4.63,4.63,0,0,1,1.37-1.5,6.11,6.11,0,0,1,1.93-.88,8.42,8.42,0,0,1,2.19-.29,7.85,7.85,0,0,1,2.54.44,6.24,6.24,0,0,1,2.24,1.32Z" transform="translate(-77.89 -66.9)"/><path class="cls-2" d="M196.4,171.06h-5v-2.55h13v2.55h-5v13.89H196.4Z" transform="translate(-77.89 -66.9)"/><path class="cls-2" d="M210.91,168.51h2.93v16.44h-2.93Z" transform="translate(-77.89 -66.9)"/><path class="cls-2" d="M222.1,168.51H226l7.64,12.31h0V168.51h2.93v16.44h-3.72l-7.8-12.7h0v12.7H222.1Z" transform="translate(-77.89 -66.9)"/><path class="cls-2" d="M259.25,184.09a12.69,12.69,0,0,1-2.75.94,15.81,15.81,0,0,1-3.45.34,10,10,0,0,1-3.65-.64,8.32,8.32,0,0,1-2.83-1.79,8.11,8.11,0,0,1-1.85-2.74,9.07,9.07,0,0,1-.66-3.52,8.92,8.92,0,0,1,.69-3.56,7.92,7.92,0,0,1,1.88-2.71,8.35,8.35,0,0,1,2.82-1.72,10.06,10.06,0,0,1,3.53-.6,11,11,0,0,1,3.61.57,7.37,7.37,0,0,1,2.64,1.5l-2,2.18a5,5,0,0,0-1.75-1.18,6.1,6.1,0,0,0-2.45-.49,5.8,5.8,0,0,0-2.36.46,5.31,5.31,0,0,0-1.8,1.28,5.79,5.79,0,0,0-1.15,1.9,6.75,6.75,0,0,0-.41,2.37,7,7,0,0,0,.41,2.43,5.67,5.67,0,0,0,1.16,1.92,5.22,5.22,0,0,0,1.83,1.27,6.28,6.28,0,0,0,2.45.45,8.48,8.48,0,0,0,3.27-.58V178H253v-2.42h6.29Z" transform="translate(-77.89 -66.9)"/></svg>