<svg id="Layer_1" data-name="Layer 1" xmlns="http://www.w3.org/2000/svg" viewBox="0 0 57.69 74.95">
  <defs>
    <style>.cls-1{fill:#fbb315;}.cls-2{fill:#fff;}.cls-3{fill:#ffd26c;}.cls-4{fill:#e0e1e1;}</style>
  </defs>
  <title>yno_icon_white</title>
  <path class="cls-1"
    d="M52.38,12.72q6.78,0,6.79,1.28,0,1.51-3,1.65a17.77,17.77,0,0,0-6.87,1.7,19,19,0,0,0-5.66,4.16,19.83,19.83,0,0,0-3.87,5.93,17.79,17.79,0,0,0-1.39,7A9.15,9.15,0,0,0,40.65,41a8.17,8.17,0,0,0,12.07-.43,9.8,9.8,0,0,0,2.59-6.75,11.71,11.71,0,0,0-1.6-6A13.12,13.12,0,0,0,49,23.21q-1.31-.86-1.3-1.23,0-.54,1.85-1.64a24.26,24.26,0,0,1,4.66-1.91,15.57,15.57,0,0,1,4.34-.77,9,9,0,0,1,3.86.86A9.82,9.82,0,0,1,65.69,21a11.43,11.43,0,0,1,2.15,3.73,13.36,13.36,0,0,1,.75,4.48A18.07,18.07,0,0,1,66.76,37,17.25,17.25,0,0,1,62,43.2a31.52,31.52,0,0,1-9.2,5,30.69,30.69,0,0,1-10.25,1.91,33.75,33.75,0,0,1-9.38-1.34,21.08,21.08,0,0,1-7.39-3.53,10.35,10.35,0,0,1-3.64-8.46,16.66,16.66,0,0,1,2.6-8.64,29.08,29.08,0,0,1,7-7.82,36.7,36.7,0,0,1,9.79-5.53A30.35,30.35,0,0,1,52.38,12.72Z"
    transform="translate(-19.63 -11.8)"/>
  <path class="cls-2"
    d="M77.09,71c-1.12-4.6-6.38-7.05-6.85-6.21s1.94,1.41,2.61,3.6c1.45,4.75-3.07,10.27-10,12.27s-12.39.73-14.18-3.76c-.91-2.27,0-3.54-1-3.84s-1.91,2.9-.7,6.65c1.83,5.67,9.59,8.66,18,6.22S78.51,76.83,77.09,71Z"
    transform="translate(-19.63 -11.8)"/>
  <path class="cls-3"
    d="M50.7,11.8q6.77,0,6.77,1.28,0,1.51-3,1.65a17.76,17.76,0,0,0-6.86,1.7,18.94,18.94,0,0,0-5.65,4.15,19.8,19.8,0,0,0-3.86,5.92,17.75,17.75,0,0,0-1.38,7A9.13,9.13,0,0,0,39,40a8.15,8.15,0,0,0,12-.43,9.78,9.78,0,0,0,2.58-6.74A11.7,11.7,0,0,0,52,26.89a13.1,13.1,0,0,0-4.65-4.63q-1.3-.86-1.3-1.23,0-.54,1.85-1.63a24.23,24.23,0,0,1,4.65-1.9,15.57,15.57,0,0,1,4.33-.77,9,9,0,0,1,3.85.86A9.8,9.8,0,0,1,64,20.06a11.38,11.38,0,0,1,2.14,3.72,13.29,13.29,0,0,1,.75,4.47A18,18,0,0,1,65.06,36a17.22,17.22,0,0,1-4.76,6.19,31.48,31.48,0,0,1-9.19,4.95,30.63,30.63,0,0,1-10.23,1.9,33.68,33.68,0,0,1-9.37-1.34,21.06,21.06,0,0,1-7.37-3.52,10.33,10.33,0,0,1-3.63-8.44,16.62,16.62,0,0,1,2.59-8.63,29,29,0,0,1,7-7.81,36.61,36.61,0,0,1,9.77-5.52A30.3,30.3,0,0,1,50.7,11.8Z"
    transform="translate(-19.63 -11.8)"/>
  <path class="cls-1"
    d="M52.08,12.56q6.77,0,6.77,1.28,0,1.51-3,1.65A17.76,17.76,0,0,0,49,17.19a19,19,0,0,0-5.65,4.15,19.78,19.78,0,0,0-3.86,5.92,17.75,17.75,0,0,0-1.38,7,9.13,9.13,0,0,0,2.31,6.53,8.15,8.15,0,0,0,12-.43A9.77,9.77,0,0,0,55,33.59a11.7,11.7,0,0,0-1.6-5.94A13.09,13.09,0,0,0,48.76,23q-1.3-.86-1.3-1.23,0-.54,1.85-1.63a24.18,24.18,0,0,1,4.65-1.9,15.54,15.54,0,0,1,4.33-.77,9,9,0,0,1,3.86.86,9.8,9.8,0,0,1,3.23,2.47,11.4,11.4,0,0,1,2.14,3.72A13.34,13.34,0,0,1,68.25,29a18,18,0,0,1-1.81,7.78A17.2,17.2,0,0,1,61.67,43a31.46,31.46,0,0,1-9.18,4.95,30.6,30.6,0,0,1-10.23,1.9,33.7,33.7,0,0,1-9.37-1.34A21,21,0,0,1,25.52,45a10.33,10.33,0,0,1-3.63-8.44,16.62,16.62,0,0,1,2.59-8.63,29,29,0,0,1,7-7.81,36.62,36.62,0,0,1,9.77-5.52A30.29,30.29,0,0,1,52.08,12.56Z"
    transform="translate(-19.63 -11.8)"/>
  <path class="cls-4"
    d="M69.67,21.62c-2.15.46,2.74,8.7-2.57,17.9a22.43,22.43,0,0,1-8.18,7.85c-8.66,4.74-20.48,5.69-29.41,2-8-3.32-8.35-8.43-9.55-8s1,8.82,10.93,16.08c4.63,3.39,12.27,4.63,19.92,3.41,0,0,7.05,10.83,9.34,10s-.6-12.49-.6-12.49A27.1,27.1,0,0,0,71.16,49C79.93,36.27,71.33,21.26,69.67,21.62Z"
    transform="translate(-19.63 -11.8)"/>
  <path class="cls-2"
    d="M69.55,22.1c-1.59.72,4,8.88-1.46,18.42a23.16,23.16,0,0,1-8.42,8.14c-8.91,4.91-21.08,5.89-30.27,2-8.19-3.44-8.21-9.81-9.45-9.4S20.63,51.52,30.83,59c4.77,3.51,12.63,4.8,20.51,3.54,0,0,7.26,11.23,9.61,10.33S60.32,60,60.32,60a27.91,27.91,0,0,0,12-9.6C81.3,37.16,71.15,21.38,69.55,22.1Z"
    transform="translate(-19.63 -11.8)"/>
</svg>
