<svg id="Layer_1" data-name="Layer 1" xmlns="http://www.w3.org/2000/svg" viewBox="0 0 512 512"><defs><style>.cls-1{fill:#fbb315;}.cls-2{fill:#fff;}.cls-3{fill:#ffd26c;}.cls-4{fill:#e0e1e1;}</style></defs><title>safari-pinned-tab</title><circle cx="256" cy="256" r="256"/><path class="cls-1" d="M256.22,59.12q37.38,0,37.44,7.06,0,8.33-16.54,9.1a98,98,0,0,0-37.88,9.37A104.76,104.76,0,0,0,208,107.58a109.33,109.33,0,0,0-21.34,32.7A98.09,98.09,0,0,0,179,178.87,50.45,50.45,0,0,0,191.55,215a45,45,0,0,0,63.7.69q1.49-1.46,2.85-3.06a54,54,0,0,0,14.28-37.22,64.56,64.56,0,0,0-8.82-33.08,72.34,72.34,0,0,0-26-25.42q-7.22-4.74-7.17-6.78,0-3,10.2-9A133.76,133.76,0,0,1,266.31,90.6a85.85,85.85,0,0,1,23.93-4.25,49.62,49.62,0,0,1,21.28,4.74,54.14,54.14,0,0,1,18.08,13.67,63,63,0,0,1,11.85,20.57A73.66,73.66,0,0,1,345.6,150a99.63,99.63,0,0,1-10.09,43,95.11,95.11,0,0,1-26.24,34.18,173.79,173.79,0,0,1-50.72,27.57A169.21,169.21,0,0,1,202,265.27a186.08,186.08,0,0,1-51.72-7.39,116.22,116.22,0,0,1-40.74-19.46A57.06,57.06,0,0,1,89.5,191.77a91.85,91.85,0,0,1,14.34-47.64A160.33,160.33,0,0,1,142.43,101a202.35,202.35,0,0,1,54-30.49A167.33,167.33,0,0,1,256.22,59.12Z"/><path class="cls-2" d="M392.46,380.44c-6.18-25.36-35.18-38.87-37.77-34.24s10.7,7.77,14.39,19.85c8,26.19-16.93,56.62-55.14,67.65s-68.31,4-78.18-20.73c-5-12.52,0-19.52-5.51-21.17s-10.53,16-3.86,36.66c10.09,31.26,52.87,47.75,99.24,34.29S400.29,412.59,392.46,380.44Z"/><path class="cls-3" d="M247,54q37.33,0,37.33,7.06,0,8.33-16.54,9.1a97.92,97.92,0,0,0-37.82,9.37,104.43,104.43,0,0,0-31.15,22.88,109.17,109.17,0,0,0-21.28,32.64,97.86,97.86,0,0,0-7.61,38.59,50.34,50.34,0,0,0,12.57,35.84A44.94,44.94,0,0,0,246,210q1.37-1.35,2.62-2.81A53.92,53.92,0,0,0,262.84,170a64.51,64.51,0,0,0-8.71-32.75,72.23,72.23,0,0,0-25.64-25.53q-7.17-4.74-7.17-6.78,0-3,10.2-9a133.59,133.59,0,0,1,25.64-10.48A85.85,85.85,0,0,1,281,81.23,49.62,49.62,0,0,1,302.26,86a54,54,0,0,1,18,13.62,62.74,62.74,0,0,1,11.8,20.51,73.27,73.27,0,0,1,4.14,24.65,99.24,99.24,0,0,1-10.09,42.73,94.94,94.94,0,0,1-26.24,34.13,173.57,173.57,0,0,1-50.67,27.29,168.88,168.88,0,0,1-56.4,10.48A185.69,185.69,0,0,1,141.16,252a116.11,116.11,0,0,1-40.63-19.41,57,57,0,0,1-20-46.53,91.63,91.63,0,0,1,14.28-47.58A159.89,159.89,0,0,1,133.38,95.4,201.85,201.85,0,0,1,187.25,65,167.06,167.06,0,0,1,247,54Z"/><path class="cls-1" d="M254.57,58.23q37.33,0,37.33,7.06,0,8.33-16.54,9.1a97.92,97.92,0,0,0-37.77,9.37,104.76,104.76,0,0,0-31.15,22.88,109.06,109.06,0,0,0-21.28,32.64,97.86,97.86,0,0,0-7.61,38.59,50.34,50.34,0,0,0,12.74,36,44.94,44.94,0,0,0,63.55.44q1.37-1.35,2.62-2.81a53.87,53.87,0,0,0,14.22-37.33,64.51,64.51,0,0,0-8.82-32.75,72.17,72.17,0,0,0-25.58-25.64q-7.17-4.74-7.17-6.78,0-3,10.2-9a133.32,133.32,0,0,1,25.64-10.48,85.68,85.68,0,0,1,23.87-4.25A49.62,49.62,0,0,1,310.09,90a54,54,0,0,1,17.81,13.62,62.85,62.85,0,0,1,11.8,20.51,73.55,73.55,0,0,1,4,24.7,99.24,99.24,0,0,1-10,42.9,94.83,94.83,0,0,1-26.3,34.29,173.45,173.45,0,0,1-50.61,27.29,168.71,168.71,0,0,1-56.4,10.48,185.8,185.8,0,0,1-51.66-7.39,115.78,115.78,0,0,1-40.63-19.35,57,57,0,0,1-20-46.53A91.63,91.63,0,0,1,102.4,143,159.89,159.89,0,0,1,141,99.92a201.9,201.9,0,0,1,53.87-30.43A167,167,0,0,1,254.57,58.23Z"/><path class="cls-4" d="M351.55,108.19c-11.85,2.54,15.11,48-14.17,98.69a123.67,123.67,0,0,1-45.1,43.28c-47.75,26.13-112.92,31.37-162.15,11-44.11-18.3-46-46.48-52.65-44.11s5.51,48.63,60.26,88.66c25.53,18.69,67.65,25.53,109.83,18.8,0,0,38.87,59.71,51.5,55.14s-3.31-68.86-3.31-68.86a149.42,149.42,0,0,0,64-51.66C408.12,189,360.71,106.2,351.55,108.19Z"/><path class="cls-2" d="M350.89,110.83c-8.77,4,22.05,49-8,101.56a127.69,127.69,0,0,1-46.42,44.88c-49.13,27.07-116.22,32.47-166.89,11-45.16-19-45.27-54.09-52.1-51.83s3.75,56.57,60,97.81c26.3,19.35,69.64,26.46,113.08,19.52,0,0,40,61.92,53,57s-3.47-71-3.47-71a153.88,153.88,0,0,0,66.16-52.93C415.67,193.87,359.71,106.86,350.89,110.83Z"/></svg>